HIERARCHY
ROOT hip
{
  OFFSET 0 0 0
  CHANNELS 6 Xposition Yposition Zposition Zrotation Yrotation Xrotation
  JOINT abdomen
  {
    OFFSET 0 20.6881 -0.73152
    CHANNELS 3 Zrotation Xrotation Yrotation
    JOINT chest
    {
      OFFSET 0 11.7043 -0.48768
      CHANNELS 3 Zrotation Xrotation Yrotation
      JOINT neck
      {
        OFFSET 0 22.1894 -2.19456
        CHANNELS 3 Zrotation Xrotation Yrotation
        JOINT head
        {
          OFFSET -0.24384 7.07133 1.2192
          CHANNELS 3 Zrotation Xrotation Yrotation
          JOINT leftEye
          {
            OFFSET 4.14528 8.04674 8.04672
            CHANNELS 3 Zrotation Xrotation Yrotation
            End Site
            {
              OFFSET 1 0 0
            }
          }
          JOINT rightEye
          {
            OFFSET -3.6576 8.04674 8.04672
            CHANNELS 3 Zrotation Xrotation Yrotation
            End Site
            {
              OFFSET 1 0 0
            }
          }
        }
      }
      JOINT rCollar
      {
        OFFSET -2.68224 19.2634 -4.8768
        CHANNELS 3 Zrotation Xrotation Yrotation
        JOINT rShldr
        {
          OFFSET -8.77824 -1.95073 1.46304
          CHANNELS 3 Zrotation Xrotation Yrotation
          JOINT rForeArm
          {
            OFFSET -28.1742 -1.7115 0.48768
            CHANNELS 3 Zrotation Xrotation Yrotation
            JOINT rHand
            {
              OFFSET -22.5879 0.773209 7.07136
              CHANNELS 3 Zrotation Xrotation Yrotation
              JOINT rThumb1
              {
                OFFSET -1.2192 -0.487915 3.41376
                CHANNELS 3 Zrotation Xrotation Yrotation
                JOINT rThumb2
                {
                  OFFSET -3.37035 -0.52449 3.41376
                  CHANNELS 3 Zrotation Xrotation Yrotation
                  End Site
                  {
                    OFFSET -1.78271 -1.18214 1.43049
                  }
                }
              }
              JOINT rIndex1
              {
                OFFSET -7.75947 0.938293 5.60832
                CHANNELS 3 Zrotation Xrotation Yrotation
                JOINT rIndex2
                {
                  OFFSET -2.54057 -0.884171 1.56538
                  CHANNELS 3 Zrotation Xrotation Yrotation
                  End Site
                  {
                    OFFSET -1.62519 -0.234802 1.16502
                  }
                }
              }
              JOINT rMid1
              {
                OFFSET -8.24714 1.18213 3.41376
                CHANNELS 3 Zrotation Xrotation Yrotation
                JOINT rMid2
                {
                  OFFSET -3.10165 -0.590103 1.0647
                  CHANNELS 3 Zrotation Xrotation Yrotation
                  End Site
                  {
                    OFFSET -2.48547 -0.328903 0.83742
                  }
                }
              }
              JOINT rRing1
              {
                OFFSET -8.82822 0.546677 1.51678
                CHANNELS 3 Zrotation Xrotation Yrotation
                JOINT rRing2
                {
                  OFFSET -2.60934 -0.819778 -0.0198488
                  CHANNELS 3 Zrotation Xrotation Yrotation
                  End Site
                  {
                    OFFSET -2.33842 -0.294052 0.168128
                  }
                }
              }
              JOINT rPinky1
              {
                OFFSET -8.27202 -0.0477905 -0.4584
                CHANNELS 3 Zrotation Xrotation Yrotation
                JOINT rPinky2
                {
                  OFFSET -1.82734 -0.647385 -0.700984
                  CHANNELS 3 Zrotation Xrotation Yrotation
                  End Site
                  {
                    OFFSET -1.69225 -0.51767 -0.607171
                  }
                }
              }
            }
          }
        }
      }
      JOINT lCollar
      {
        OFFSET 2.68224 19.2634 -4.8768
        CHANNELS 3 Zrotation Xrotation Yrotation
        JOINT lShldr
        {
          OFFSET 8.77824 -1.95073 1.46304
          CHANNELS 3 Zrotation Xrotation Yrotation
          JOINT lForeArm
          {
            OFFSET 28.1742 -1.7115 0.48768
            CHANNELS 3 Zrotation Xrotation Yrotation
            JOINT lHand
            {
              OFFSET 22.5879 0.773209 7.07136
              CHANNELS 3 Zrotation Xrotation Yrotation
              JOINT lThumb1
              {
                OFFSET 1.2192 -0.487915 3.41376
                CHANNELS 3 Zrotation Xrotation Yrotation
                JOINT lThumb2
                {
                  OFFSET 3.37035 -0.52449 3.41376
                  CHANNELS 3 Zrotation Xrotation Yrotation
                  End Site
                  {
                    OFFSET 1.78271 -1.18214 1.43049
                  }
                }
              }
              JOINT lIndex1
              {
                OFFSET 7.75947 0.938293 5.60832
                CHANNELS 3 Zrotation Xrotation Yrotation
                JOINT lIndex2
                {
                  OFFSET 2.54057 -0.884171 1.56538
                  CHANNELS 3 Zrotation Xrotation Yrotation
                  End Site
                  {
                    OFFSET 1.62519 -0.234802 1.16502
                  }
                }
              }
              JOINT lMid1
              {
                OFFSET 8.24714 1.18213 3.41376
                CHANNELS 3 Zrotation Xrotation Yrotation
                JOINT lMid2
                {
                  OFFSET 3.10165 -0.590103 1.0647
                  CHANNELS 3 Zrotation Xrotation Yrotation
                  End Site
                  {
                    OFFSET 2.48547 -0.328903 0.83742
                  }
                }
              }
              JOINT lRing1
              {
                OFFSET 8.82822 0.546677 1.51678
                CHANNELS 3 Zrotation Xrotation Yrotation
                JOINT lRing2
                {
                  OFFSET 2.60934 -0.819778 -0.0198488
                  CHANNELS 3 Zrotation Xrotation Yrotation
                  End Site
                  {
                    OFFSET 2.33842 -0.294052 0.168128
                  }
                }
              }
              JOINT lPinky1
              {
                OFFSET 8.27202 -0.0477905 -0.4584
                CHANNELS 3 Zrotation Xrotation Yrotation
                JOINT lPinky2
                {
                  OFFSET 1.82734 -0.647385 -0.700984
                  CHANNELS 3 Zrotation Xrotation Yrotation
                  End Site
                  {
                    OFFSET 1.69225 -0.51767 -0.607171
                  }
                }
              }
            }
          }
        }
      }
    }
  }
  JOINT rButtock
  {
    OFFSET -8.77824 4.35084 1.2192
    CHANNELS 3 Zrotation Xrotation Yrotation
    JOINT rThigh
    {
      OFFSET 0 -1.70687 -2.19456
      CHANNELS 3 Zrotation Xrotation Yrotation
      JOINT rShin
      {
        OFFSET 0 -36.8199 0.73152
        CHANNELS 3 Zrotation Xrotation Yrotation
        JOINT rFoot
        {
          OFFSET 0.73152 -45.1104 -5.12064
          CHANNELS 3 Zrotation Xrotation Yrotation
          End Site
          {
            OFFSET -1.1221 -3.69964 12.103
          }
        }
      }
    }
  }
  JOINT lButtock
  {
    OFFSET 8.77824 4.35084 1.2192
    CHANNELS 3 Zrotation Xrotation Yrotation
    JOINT lThigh
    {
      OFFSET 0 -1.70687 -2.19456
      CHANNELS 3 Zrotation Xrotation Yrotation
      JOINT lShin
      {
        OFFSET 0 -36.8199 0.73152
        CHANNELS 3 Zrotation Xrotation Yrotation
        JOINT lFoot
        {
          OFFSET -0.73152 -45.1104 -5.12064
          CHANNELS 3 Zrotation Xrotation Yrotation
          End Site
          {
            OFFSET 1.1221 -3.69964 12.103
          }
        }
      }
    }
  }
}
MOTION
Frames:	6
Frame Time:	0.00833333
28.7674 84.338 -9.43498 64.9085 -85.9153 -63.2002 -0.551797 3.29275 0.393405 3.46965 3.51433 0.0511111 0.666855 -1.46366 5.39546 -2.77542 35.8654 7.62835 -0.0 0.0 0.0 -0.0 0.0 0.0 -5.97272e-14 -1.43473e-12 5.78079e-14 75.5931 18.3823 6.75732 -12.4503 -5.7694 22.4849 -0.0409112 -5.76265 -0.812657 3.09694e-10 -2.61307e-11 1.38956e-09 5.31063e-10 -4.60871e-11 2.4032e-09 3.09703e-10 -2.61233e-11 1.38953e-09 7.73091 5.47488 0.417314 3.09696e-10 -2.6129e-11 1.38956e-09 2.90554 0.965183 0.102902 3.09697e-10 -2.61301e-11 1.38956e-09 10.2786 0.731801 0.0259123 3.09688e-10 -2.61275e-11 1.38957e-09 2.22167 -0.733487 -0.20892 -5.97576e-14 -1.43472e-12 5.75105e-14 -79.1678 30.2727 -10.4506 11.5988 -5.17124 -20.836 0.0783248 -7.95724 1.12564 7.39713e-10 5.71671e-10 -7.92588e-10 1.28027e-09 9.92398e-10 -1.3658e-09 7.39704e-10 5.71674e-10 -7.92572e-10 -7.73091 5.47488 -0.417314 7.39711e-10 5.71672e-10 -7.92584e-10 -2.90554 0.965183 -0.102902 7.39706e-10 5.71669e-10 -7.92591e-10 -10.2786 0.731801 -0.0259123 7.3972e-10 5.71669e-10 -7.92594e-10 -2.22167 -0.733487 0.20892 -2.03217e-16 0.0 -3.88251e-19 -7.68837 -8.05775 -6.92297 0.0048782 18.7032 0.390828 -4.78941 -10.881 -20.2567 2.03217e-16 0.0 3.88251e-19 6.57871 -8.68749 -2.42214 0.0813401 16.8448 -0.365823 3.59726 -7.5524 16.0523
28.7526 84.3437 -9.39505 64.194 -85.7514 -62.5412 -0.388285 3.29586 0.339292 3.46973 3.60852 0.0335883 0.641063 -1.55416 5.37124 -2.79572 35.7841 7.61777 -0.0 0.0 0.0 -0.0 0.0 0.0 1.54937e-14 -1.08667e-12 7.8523e-14 75.5151 18.4656 6.81743 -12.4533 -5.77153 22.4909 -0.0417896 -5.82277 -0.821196 -2.41874e-10 1.67294e-10 1.87162e-09 -4.21926e-10 2.88737e-10 3.23468e-09 -2.41865e-10 1.673e-10 1.8716e-09 7.73091 5.47488 0.417314 -2.41871e-10 1.67297e-10 1.87162e-09 2.90554 0.965183 0.102902 -2.41867e-10 1.67296e-10 1.87162e-09 10.2786 0.731801 0.0259123 -2.41879e-10 1.67298e-10 1.87162e-09 2.22167 -0.733487 -0.20892 1.54215e-14 -1.08666e-12 7.82435e-14 -79.2107 30.2229 -10.4778 11.615 -5.18226 -20.8671 0.0801605 -8.04836 1.1387 1.45926e-10 6.00994e-10 -1.55751e-09 2.57129e-10 1.04119e-09 -2.69037e-09 1.45919e-10 6.00999e-10 -1.5575e-09 -7.73091 5.47488 -0.417314 1.45925e-10 6.00997e-10 -1.5575e-09 -2.90554 0.965183 -0.102902 1.45918e-10 6.00993e-10 -1.55751e-09 -10.2786 0.731801 -0.0259123 1.45932e-10 6.00993e-10 -1.55751e-09 -2.22167 -0.733487 0.20892 -2.03217e-16 0.0 -3.88251e-19 -7.61189 -7.96193 -6.98791 0.00500102 18.6292 0.389449 -4.77595 -10.8546 -20.2591 2.03217e-16 0.0 3.88251e-19 6.65976 -8.69411 -2.42051 0.0818022 16.8802 -0.366381 3.58342 -7.54601 15.9934
28.781 84.3453 -9.4133 63.426 -85.7491 -61.7982 -0.211313 3.27447 0.285498 3.46404 3.72728 0.0159056 0.614635 -1.66993 5.33789 -2.81879 35.713 7.59227 -0.0 0.0 0.0 -0.0 0.0 0.0 9.37217e-14 -6.51057e-13 9.51243e-14 75.432 18.5271 6.89228 -12.4482 -5.76785 22.481 -0.0424566 -5.86829 -0.827662 -7.66013e-10 3.65098e-10 2.21578e-09 -1.32723e-09 6.31232e-10 3.82781e-09 -7.66005e-10 3.65102e-10 2.21577e-09 7.73091 5.47488 0.417314 -7.6601e-10 3.65101e-10 2.21578e-09 2.90554 0.965183 0.102902 -7.66003e-10 3.65101e-10 2.21578e-09 10.2786 0.731801 0.0259123 -7.66018e-10 3.65102e-10 2.21578e-09 2.22167 -0.733487 -0.20892 9.36052e-14 -6.51055e-13 9.48657e-14 -79.2613 30.1528 -10.4985 11.6326 -5.19427 -20.9009 0.0812046 -8.1005 1.14618 -4.48231e-10 6.04169e-10 -2.20559e-09 -7.67057e-10 1.04474e-09 -3.813e-09 -4.48236e-10 6.04175e-10 -2.20558e-09 -7.73091 5.47488 -0.417314 -4.48231e-10 6.04173e-10 -2.20558e-09 -2.90554 0.965183 -0.102902 -4.4824e-10 6.04169e-10 -2.20559e-09 -10.2786 0.731801 -0.0259123 -4.48225e-10 6.04167e-10 -2.2056e-09 -2.22167 -0.733487 0.20892 -2.03217e-16 0.0 -3.88251e-19 -7.5271 -7.84476 -7.055 0.00512505 18.5188 0.387227 -4.75929 -10.8231 -20.2631 2.03217e-16 0.0 3.88251e-19 6.74464 -8.69689 -2.42706 0.0822719 16.9115 -0.367069 3.57331 -7.54721 15.9395
28.8301 84.3506 -9.48701 61.8658 -85.915 -60.2906 -0.0971207 3.23947 0.25044 3.46811 3.81473 0.00407552 0.579713 -1.74723 5.29197 -2.81474 35.6201 7.53176 -0.0 0.0 0.0 -0.0 0.0 0.0 1.37632e-13 -2.99768e-13 9.63112e-14 75.3776 18.5145 6.93497 -12.4273 -5.75282 22.44 -0.0421504 -5.84951 -0.824992 -1.05133e-09 4.01132e-10 2.02205e-09 -1.81942e-09 6.9386e-10 3.49198e-09 -1.05132e-09 4.01135e-10 2.02204e-09 7.73091 5.47488 0.417314 -1.05132e-09 4.01135e-10 2.02205e-09 2.90554 0.965183 0.102902 -1.05132e-09 4.01135e-10 2.02205e-09 10.2786 0.731801 0.0259123 -1.05133e-09 4.01137e-10 2.02205e-09 2.22167 -0.733487 -0.20892 1.37495e-13 -2.99768e-13 9.60627e-14 -79.3359 30.0833 -10.4588 11.6486 -5.20523 -20.9318 0.0808903 -8.08708 1.14425 -8.42224e-10 5.27365e-10 -2.21789e-09 -1.44757e-09 9.10571e-10 -3.83606e-09 -8.42228e-10 5.27372e-10 -2.21788e-09 -7.73091 5.47488 -0.417314 -8.42223e-10 5.27369e-10 -2.21788e-09 -2.90554 0.965183 -0.102902 -8.42233e-10 5.27365e-10 -2.21789e-09 -10.2786 0.731801 -0.0259123 -8.42218e-10 5.27363e-10 -2.2179e-09 -2.22167 -0.733487 0.20892 -2.03217e-16 0.0 -3.88251e-19 -7.48494 -7.73012 -7.09517 0.0051967 18.4138 0.385106 -4.75117 -10.8074 -20.2751 2.03217e-16 0.0 3.88251e-19 6.78192 -8.66644 -2.44015 0.0823837 16.9041 -0.36711 3.5677 -7.549 15.906
28.8144 84.3616 -9.52448 60.6407 -85.9977 -59.1315 -0.0825158 3.18714 0.245534 3.48883 3.84729 0.00185317 0.530908 -1.76682 5.23126 -2.76094 35.5156 7.42318 -0.0 0.0 0.0 -0.0 0.0 0.0 1.2907e-13 -6.29822e-14 7.27226e-14 75.3701 18.3829 6.91947 -12.3789 -5.71814 22.3455 -0.0402255 -5.72134 -0.806782 -9.6723e-10 1.59724e-10 9.16362e-10 -1.67255e-09 2.76498e-10 1.58104e-09 -9.67225e-10 1.59727e-10 9.16358e-10 7.73091 5.47488 0.417314 -9.67229e-10 1.59727e-10 9.16362e-10 2.90554 0.965183 0.102902 -9.67222e-10 1.59728e-10 9.16361e-10 10.2786 0.731801 0.0259123 -9.67236e-10 1.5973e-10 9.16364e-10 2.22167 -0.733487 -0.20892 1.2895e-13 -6.2981e-14 7.2464e-14 -79.4537 30.0181 -10.3128 11.6655 -5.21677 -20.9642 0.0785377 -7.97359 1.12797 -9.4826e-10 3.13274e-10 -1.17064e-09 -1.63419e-09 5.39819e-10 -2.0269e-09 -9.48265e-10 3.13281e-10 -1.17064e-09 -7.73091 5.47488 -0.417314 -9.48259e-10 3.13278e-10 -1.17064e-09 -2.90554 0.965183 -0.102902 -9.48268e-10 3.13275e-10 -1.17065e-09 -10.2786 0.731801 -0.0259123 -9.48255e-10 3.13274e-10 -1.17066e-09 -2.22167 -0.733487 0.20892 -2.03217e-16 0.0 -3.88251e-19 -7.51512 -7.61158 -7.10695 0.00521172 18.3209 0.383234 -4.75667 -10.8219 -20.2927 2.03217e-16 0.0 3.88251e-19 6.74252 -8.57883 -2.46319 0.0819792 16.8411 -0.366266 3.56872 -7.55424 15.8992
28.7765 84.3793 -9.4892 61.3766 -85.8121 -59.9352 -0.121314 3.11386 0.258789 3.51697 3.85765 0.00531659 0.47357 -1.76344 5.15804 -2.67864 35.4102 7.28007 -0.0 0.0 0.0 -0.0 0.0 0.0 9.06757e-14 1.45744e-13 3.25013e-14 75.3883 18.1704 6.87543 -12.3103 -5.66895 22.2117 -0.0373878 -5.52089 -0.77833 -6.51208e-10 -2.46723e-10 -7.98817e-10 -1.12434e-09 -4.26351e-10 -1.38268e-09 -6.51203e-10 -2.46721e-10 -7.98821e-10 7.73091 5.47488 0.417314 -6.51207e-10 -2.4672e-10 -7.98819e-10 2.90554 0.965183 0.102902 -6.51203e-10 -2.4672e-10 -7.98817e-10 10.2786 0.731801 0.0259123 -6.51214e-10 -2.46718e-10 -7.98812e-10 2.22167 -0.733487 -0.20892 9.05938e-14 1.45748e-13 3.22217e-14 -79.6005 29.9464 -10.0999 11.6837 -5.22923 -20.9992 0.0747561 -7.78333 1.1007 -8.8473e-10 4.92509e-12 5.64244e-10 -1.53021e-09 6.54718e-12 9.71326e-10 -8.84736e-10 4.92965e-12 5.64249e-10 -7.73091 5.47488 -0.417314 -8.8473e-10 4.92759e-12 5.6425e-10 -2.90554 0.965183 -0.102902 -8.84736e-10 4.92548e-12 5.64241e-10 -10.2786 0.731801 -0.0259123 -8.84726e-10 4.92553e-12 5.64231e-10 -2.22167 -0.733487 0.20892 -2.03217e-16 0.0 -3.88251e-19 -7.58523 -7.48068 -7.10378 0.00519148 18.2195 0.381145 -4.76891 -10.8524 -20.3139 2.03217e-16 0.0 3.88251e-19 6.65912 -8.45509 -2.49575 0.0812768 16.7437 -0.364963 3.57532 -7.5651 15.9103
